<svg width="21" height="17" viewBox="0 0 21 17" fill="none" xmlns="http://www.w3.org/2000/svg">
<path d="M20.2031 6H17.6367L13.1016 0.691406C12.7852 0.339844 12.2578 0.304688 11.9062 0.585938C11.5547 0.902344 11.5195 1.42969 11.8008 1.78125L15.4219 6H5.54297L9.16406 1.78125C9.44531 1.42969 9.41016 0.902344 9.05859 0.585938C8.70703 0.304688 8.17969 0.339844 7.86328 0.691406L3.32812 6H0.796875C0.550781 6 0.375 6.21094 0.375 6.42188V7.26562C0.375 7.51172 0.550781 7.6875 0.796875 7.6875H1.42969L2.41406 14.6836C2.51953 15.5273 3.22266 16.125 4.06641 16.125H16.8984C17.7422 16.125 18.4453 15.5273 18.5508 14.6836L19.5352 7.6875H20.2031C20.4141 7.6875 20.625 7.51172 20.625 7.26562V6.42188C20.625 6.21094 20.4141 6 20.2031 6ZM16.8984 14.4375H4.06641L3.15234 7.6875H17.8125L16.8984 14.4375ZM11.3438 9.65625C11.3438 9.19922 10.957 8.8125 10.5 8.8125C10.0078 8.8125 9.65625 9.19922 9.65625 9.65625V12.4688C9.65625 12.9609 10.0078 13.3125 10.5 13.3125C10.957 13.3125 11.3438 12.9609 11.3438 12.4688V9.65625ZM15.2812 9.65625C15.2812 9.19922 14.8945 8.8125 14.4375 8.8125C13.9453 8.8125 13.5938 9.19922 13.5938 9.65625V12.4688C13.5938 12.9609 13.9453 13.3125 14.4375 13.3125C14.8945 13.3125 15.2812 12.9609 15.2812 12.4688V9.65625ZM7.40625 9.65625C7.40625 9.19922 7.01953 8.8125 6.5625 8.8125C6.07031 8.8125 5.71875 9.19922 5.71875 9.65625V12.4688C5.71875 12.9609 6.07031 13.3125 6.5625 13.3125C7.01953 13.3125 7.40625 12.9609 7.40625 12.4688V9.65625Z" fill="#F17228"/>
</svg>
