<svg width="636" height="23" viewBox="0 0 636 23" fill="none" xmlns="http://www.w3.org/2000/svg">
<path d="M17.8594 16.7383L13.6055 12.4844C13.5 12.4141 13.3945 12.3438 13.2891 12.3438H12.832C13.9219 11.0781 14.625 9.39062 14.625 7.5625C14.625 3.55469 11.3203 0.25 7.3125 0.25C3.26953 0.25 0 3.55469 0 7.5625C0 11.6055 3.26953 14.875 7.3125 14.875C9.14062 14.875 10.793 14.207 12.0938 13.1172V13.5742C12.0938 13.6797 12.1289 13.7852 12.1992 13.8906L16.4531 18.1445C16.6289 18.3203 16.9102 18.3203 17.0508 18.1445L17.8594 17.3359C18.0352 17.1953 18.0352 16.9141 17.8594 16.7383ZM7.3125 13.1875C4.18359 13.1875 1.6875 10.6914 1.6875 7.5625C1.6875 4.46875 4.18359 1.9375 7.3125 1.9375C10.4062 1.9375 12.9375 4.46875 12.9375 7.5625C12.9375 10.6914 10.4062 13.1875 7.3125 13.1875Z" fill="#F17228"/>
<path d="M48 0.8125C42.6484 0.8125 38.3125 5.14844 38.3125 10.5C38.3125 15.8516 42.6484 20.1875 48 20.1875C53.3516 20.1875 57.6875 15.8516 57.6875 10.5C57.6875 5.14844 53.3516 0.8125 48 0.8125ZM56.4375 10.5C56.4375 15.1484 52.6484 18.9375 48 18.9375C43.3516 18.9375 39.5625 15.1875 39.5625 10.5C39.5625 5.89062 43.3125 2.0625 48 2.0625C52.6094 2.0625 56.4375 5.85156 56.4375 10.5ZM50.6172 13.9766C50.8125 14.1328 51.125 14.0547 51.2422 13.8594L51.5938 13.4297C51.75 13.1953 51.6719 12.9219 51.4766 12.7656L48.7422 10.7734V5.03125C48.7422 4.79688 48.5078 4.5625 48.2734 4.5625H47.7266C47.4531 4.5625 47.2578 4.79688 47.2578 5.03125V11.2812C47.2578 11.4375 47.2969 11.5547 47.4141 11.6719L50.6172 13.9766Z" fill="#FF7800"/>
<path d="M98.2031 7H95.6367L91.1016 1.69141C90.7852 1.33984 90.2578 1.30469 89.9062 1.58594C89.5547 1.90234 89.5195 2.42969 89.8008 2.78125L93.4219 7H83.543L87.1641 2.78125C87.4453 2.42969 87.4102 1.90234 87.0586 1.58594C86.707 1.30469 86.1797 1.33984 85.8633 1.69141L81.3281 7H78.7969C78.5508 7 78.375 7.21094 78.375 7.42188V8.26562C78.375 8.51172 78.5508 8.6875 78.7969 8.6875H79.4297L80.4141 15.6836C80.5195 16.5273 81.2227 17.125 82.0664 17.125H94.8984C95.7422 17.125 96.4453 16.5273 96.5508 15.6836L97.5352 8.6875H98.2031C98.4141 8.6875 98.625 8.51172 98.625 8.26562V7.42188C98.625 7.21094 98.4141 7 98.2031 7ZM94.8984 15.4375H82.0664L81.1523 8.6875H95.8125L94.8984 15.4375ZM89.3438 10.6562C89.3438 10.1992 88.957 9.8125 88.5 9.8125C88.0078 9.8125 87.6562 10.1992 87.6562 10.6562V13.4688C87.6562 13.9609 88.0078 14.3125 88.5 14.3125C88.957 14.3125 89.3438 13.9609 89.3438 13.4688V10.6562ZM93.2812 10.6562C93.2812 10.1992 92.8945 9.8125 92.4375 9.8125C91.9453 9.8125 91.5938 10.1992 91.5938 10.6562V13.4688C91.5938 13.9609 91.9453 14.3125 92.4375 14.3125C92.8945 14.3125 93.2812 13.9609 93.2812 13.4688V10.6562ZM85.4062 10.6562C85.4062 10.1992 85.0195 9.8125 84.5625 9.8125C84.0703 9.8125 83.7188 10.1992 83.7188 10.6562V13.4688C83.7188 13.9609 84.0703 14.3125 84.5625 14.3125C85.0195 14.3125 85.4062 13.9609 85.4062 13.4688V10.6562Z" fill="#F17228"/>
<path d="M138.336 11.75H138.531C138.805 11.2031 138.961 10.5781 139 9.875C139 8.58594 138.414 7.45312 137.516 6.63281C136.93 4.5625 135.016 3 132.75 3C132.594 3 132.438 3.03906 132.32 3.07812C131.617 1.55469 130.133 0.5 128.375 0.5C126.617 0.5 125.094 1.55469 124.391 3.07812C124.273 3.03906 124.117 3 124 3C121.227 3 119 5.26562 119 8C119 9.52344 119.664 10.8516 120.719 11.75H119.625C119.273 11.75 118.961 12.0625 119 12.4141C119.234 15.4219 121.266 17.8828 124 18.8203V19.25C124 19.9531 124.547 20.5 125.25 20.5H132.75C133.453 20.5 134 19.9531 134 19.25V18.8203C136.695 17.8438 138.727 15.3828 138.961 12.4141C139 12.0625 138.727 11.75 138.336 11.75ZM137.75 9.875C137.711 10.6172 137.477 11.2422 137.086 11.75H132.125C131.734 11.2422 131.5 10.6172 131.5 9.875C131.5 8.15625 132.867 6.75 134.625 6.75C136.344 6.75 137.75 8.15625 137.75 9.875ZM120.25 8C120.25 6.63281 121.148 3.9375 125.25 4.25C126.305 1.78906 127.789 1.75 128.375 1.75C128.922 1.75 130.406 1.75 131.5 4.25C132.867 4.17188 134.469 4.21094 135.641 5.65625C135.289 5.57812 134.938 5.53906 134.625 5.5C132.203 5.53906 130.25 7.49219 130.25 9.875C130.25 10.5781 130.406 11.2031 130.68 11.75H129V4.5625C129 4.40625 128.844 4.25 128.688 4.25H128.062C127.867 4.25 127.75 4.40625 127.75 4.5625V10.8906L123.414 6.55469C123.336 6.47656 123.258 6.47656 123.18 6.47656C123.102 6.47656 123.023 6.47656 122.945 6.55469L122.516 6.98438C122.438 7.0625 122.398 7.14062 122.398 7.21875C122.398 7.29688 122.438 7.375 122.516 7.41406L126.852 11.75H124C121.93 11.75 120.25 10.0703 120.25 8ZM133.57 17.6484L132.75 17.9219V19.25H125.25V17.9219L124.391 17.6484C122.32 16.9062 120.758 15.1484 120.328 13H137.633C137.203 15.1484 135.68 16.9062 133.57 17.6484Z" fill="#FF7800"/>
<path d="M170.129 10.9375C169.109 10.9375 168.652 11.5 167 11.5C165.312 11.5 164.855 10.9375 163.836 10.9375C161.234 10.9375 159.125 13.082 159.125 15.6836V16.5625C159.125 17.5117 159.863 18.25 160.812 18.25H173.188C174.102 18.25 174.875 17.5117 174.875 16.5625V15.6836C174.875 13.082 172.73 10.9375 170.129 10.9375ZM173.188 16.5625H160.812V15.6836C160.812 13.9961 162.148 12.625 163.836 12.625C164.363 12.625 165.172 13.1875 167 13.1875C168.793 13.1875 169.602 12.625 170.129 12.625C171.816 12.625 173.188 13.9961 173.188 15.6836V16.5625ZM167 10.375C169.777 10.375 172.062 8.125 172.062 5.3125C172.062 2.53516 169.777 0.25 167 0.25C164.188 0.25 161.938 2.53516 161.938 5.3125C161.938 8.125 164.188 10.375 167 10.375ZM167 1.9375C168.828 1.9375 170.375 3.48438 170.375 5.3125C170.375 7.17578 168.828 8.6875 167 8.6875C165.137 8.6875 163.625 7.17578 163.625 5.3125C163.625 3.48438 165.137 1.9375 167 1.9375Z" fill="#F17228"/>
<path d="M215.328 1.75C214.391 1.78906 209.703 2.10156 206.773 3.66406C206.617 3.74219 206.344 3.74219 206.188 3.66406C203.258 2.10156 198.57 1.78906 197.633 1.75C196.305 1.75 195.25 2.80469 195.25 4.09375V15.6562C195.25 16.9062 196.227 17.8828 197.477 17.9609C198.844 18.0391 202.242 18.2734 204.586 19.1328C204.82 19.2109 205.016 19.25 205.211 19.25H207.711C207.945 19.25 208.141 19.2109 208.375 19.1328C210.719 18.2734 214.117 18.0391 215.484 17.9609C216.734 17.8828 217.711 16.9062 217.711 15.6562V4.09375C217.75 2.80469 216.656 1.75 215.328 1.75ZM205.875 17.4141C205.875 17.7656 205.562 18.0391 205.25 18.0391C205.172 18.0391 205.133 18 205.055 18C202.594 17.0625 199.234 16.7891 197.555 16.7109C196.969 16.6719 196.5 16.2422 196.5 15.6562V4.09375C196.5 3.50781 197.008 3.03906 197.633 3.03906C198.375 3.03906 202.398 3.3125 205.133 4.52344C205.562 4.71875 205.836 5.14844 205.836 5.61719L205.875 9.52344V17.4141ZM216.5 15.6562C216.5 16.2422 215.992 16.6719 215.406 16.7109C213.727 16.7891 210.367 17.0625 207.906 18C207.828 18 207.789 18.0391 207.711 18.0391C207.398 18.0391 207.086 17.7656 207.086 17.4141V9.52344L207.125 5.61719C207.125 5.14844 207.398 4.71875 207.828 4.52344C210.562 3.3125 214.586 3.03906 215.328 3.03906C215.953 3.03906 216.461 3.50781 216.461 4.09375V15.6562H216.5Z" fill="#FF7800"/>
<path d="M239.578 9.875C239.227 10.2266 239.227 10.8125 239.578 11.1641L247.156 18.7812C247.547 19.1328 248.133 19.1328 248.484 18.7812L249.383 17.8828C249.734 17.5312 249.734 16.9453 249.383 16.5547L243.367 10.5L249.383 4.48438C249.734 4.09375 249.734 3.50781 249.383 3.15625L248.484 2.25781C248.133 1.90625 247.547 1.90625 247.156 2.25781L239.578 9.875Z" fill="#F17228"/>
<path d="M290.688 11.5C290.688 6.14844 286.352 1.8125 281 1.8125C275.648 1.8125 271.312 6.14844 271.312 11.5C271.312 16.3438 274.828 20.3672 279.477 21.0703V14.3125H277.016V11.5H279.477V9.39062C279.477 6.96875 280.922 5.60156 283.109 5.60156C284.203 5.60156 285.297 5.79688 285.297 5.79688V8.17969H284.086C282.875 8.17969 282.484 8.92188 282.484 9.70312V11.5H285.18L284.75 14.3125H282.484V21.0703C287.133 20.3672 290.688 16.3438 290.688 11.5Z" fill="white"/>
<path d="M319.5 7.09375C319.178 7.12305 318.855 7.15234 318.562 7.24023C318.709 7.47461 318.768 7.76758 318.797 8.03125C318.797 8.93945 318.035 9.67188 317.156 9.67188C316.863 9.67188 316.57 9.61328 316.365 9.4668C316.277 9.75977 316.219 10.0527 316.219 10.375C316.219 12.1914 317.684 13.6562 319.5 13.6562C321.316 13.6562 322.781 12.1914 322.781 10.375C322.781 8.58789 321.316 7.12305 319.5 7.12305V7.09375ZM327.82 9.96484C326.238 6.85938 323.074 4.75 319.5 4.75C315.896 4.75 312.732 6.85938 311.15 9.96484C311.092 10.082 311.062 10.2285 311.062 10.375C311.062 10.5508 311.092 10.6973 311.15 10.8145C312.732 13.9199 315.896 16 319.5 16C323.074 16 326.238 13.9199 327.82 10.8145C327.879 10.6973 327.908 10.5508 327.908 10.4043C327.908 10.2285 327.879 10.082 327.82 9.96484ZM319.5 14.5938C316.6 14.5938 313.934 12.9824 312.527 10.375C313.934 7.76758 316.6 6.15625 319.5 6.15625C322.371 6.15625 325.037 7.76758 326.443 10.375C325.037 12.9824 322.371 14.5938 319.5 14.5938Z" fill="#B5B5B5"/>
<path d="M366.699 16.6738L349.18 2.99219C349.092 2.93359 348.975 2.9043 348.887 2.9043C348.711 2.9043 348.594 2.96289 348.506 3.05078L348.213 3.43164C348.154 3.51953 348.096 3.60742 348.096 3.72461C348.096 3.87109 348.184 4.01758 348.301 4.07617L365.82 17.7871C365.879 17.8457 365.996 17.875 366.084 17.875C366.26 17.875 366.377 17.8164 366.465 17.6992L366.758 17.3477C366.816 17.2598 366.875 17.1719 366.875 17.0547C366.875 16.9082 366.787 16.7617 366.699 16.6738ZM356.797 7.18164L360.752 10.2578C360.693 8.5 359.258 7.09375 357.5 7.09375C357.266 7.12305 357.031 7.12305 356.797 7.18164ZM358.174 13.5977L354.219 10.5215C354.277 12.2793 355.713 13.6562 357.5 13.6562C357.705 13.6562 357.939 13.6562 358.174 13.5977ZM357.5 6.15625C360.371 6.15625 363.037 7.76758 364.443 10.375C364.092 11.0488 363.682 11.6348 363.154 12.1621L364.268 13.0117C364.883 12.3672 365.41 11.6348 365.82 10.8145C365.879 10.6973 365.938 10.5508 365.938 10.4043C365.938 10.2285 365.879 10.082 365.82 9.96484C364.238 6.85938 361.074 4.75 357.5 4.75C356.416 4.75 355.391 4.95508 354.424 5.30664L355.771 6.39062C356.328 6.24414 356.914 6.15625 357.5 6.15625ZM357.5 14.5938C354.6 14.5938 351.934 12.9824 350.527 10.375C350.879 9.73047 351.289 9.14453 351.816 8.61719L350.703 7.76758C350.088 8.41211 349.561 9.14453 349.15 9.96484C349.092 10.082 349.062 10.2285 349.062 10.375C349.062 10.5508 349.092 10.6973 349.15 10.8145C350.732 13.9199 353.896 16 357.5 16C358.555 16 359.58 15.7949 360.547 15.4727L359.199 14.3887C358.643 14.5352 358.057 14.5938 357.5 14.5938Z" fill="#B5B5B5"/>
<path d="M396 7.00781C393.5 7.00781 391.508 9.03906 391.508 11.5C391.508 14 393.5 15.9922 396 15.9922C398.461 15.9922 400.492 14 400.492 11.5C400.492 9.03906 398.461 7.00781 396 7.00781ZM396 14.4297C394.398 14.4297 393.07 13.1406 393.07 11.5C393.07 9.89844 394.359 8.60938 396 8.60938C397.602 8.60938 398.891 9.89844 398.891 11.5C398.891 13.1406 397.602 14.4297 396 14.4297ZM401.703 6.85156C401.703 6.26562 401.234 5.79688 400.648 5.79688C400.062 5.79688 399.594 6.26562 399.594 6.85156C399.594 7.4375 400.062 7.90625 400.648 7.90625C401.234 7.90625 401.703 7.4375 401.703 6.85156ZM404.672 7.90625C404.594 6.5 404.281 5.25 403.266 4.23438C402.25 3.21875 401 2.90625 399.594 2.82812C398.148 2.75 393.812 2.75 392.367 2.82812C390.961 2.90625 389.75 3.21875 388.695 4.23438C387.68 5.25 387.367 6.5 387.289 7.90625C387.211 9.35156 387.211 13.6875 387.289 15.1328C387.367 16.5391 387.68 17.75 388.695 18.8047C389.75 19.8203 390.961 20.1328 392.367 20.2109C393.812 20.2891 398.148 20.2891 399.594 20.2109C401 20.1328 402.25 19.8203 403.266 18.8047C404.281 17.75 404.594 16.5391 404.672 15.1328C404.75 13.6875 404.75 9.35156 404.672 7.90625ZM402.797 16.6562C402.523 17.4375 401.898 18.0234 401.156 18.3359C399.984 18.8047 397.25 18.6875 396 18.6875C394.711 18.6875 391.977 18.8047 390.844 18.3359C390.062 18.0234 389.477 17.4375 389.164 16.6562C388.695 15.5234 388.812 12.7891 388.812 11.5C388.812 10.25 388.695 7.51562 389.164 6.34375C389.477 5.60156 390.062 5.01562 390.844 4.70312C391.977 4.23438 394.711 4.35156 396 4.35156C397.25 4.35156 399.984 4.23438 401.156 4.70312C401.898 4.97656 402.484 5.60156 402.797 6.34375C403.266 7.51562 403.148 10.25 403.148 11.5C403.148 12.7891 403.266 15.5234 402.797 16.6562Z" fill="white"/>
<path d="M439.443 4.54492L438.33 3.43164C437.979 3.08008 437.48 2.875 437.012 2.875C436.543 2.875 436.045 3.08008 435.693 3.43164L433.496 5.62891L432.5 6.625L425.352 13.7734L425 17.1133C424.941 17.5234 425.264 17.875 425.674 17.875C425.703 17.875 425.732 17.875 425.762 17.875L429.102 17.5234L436.25 10.375L437.246 9.37891L439.443 7.18164C440.176 6.44922 440.176 5.27734 439.443 4.54492ZM428.457 16.1758L426.494 16.3809L426.699 14.418L433.467 7.62109L434.375 6.71289L436.162 8.5L435.254 9.4082L428.457 16.1758ZM438.447 6.18555L437.158 7.50391L435.371 5.7168L436.689 4.42773C436.807 4.31055 436.953 4.28125 437.012 4.28125C437.07 4.28125 437.217 4.31055 437.334 4.42773L438.447 5.54102C438.623 5.7168 438.623 6.00977 438.447 6.18555Z" fill="#B5B5B5"/>
<path d="M477.93 7.4375C478.711 6.85156 479.414 6.14844 479.961 5.32812C479.258 5.64062 478.438 5.875 477.617 5.95312C478.477 5.44531 479.102 4.66406 479.414 3.6875C478.633 4.15625 477.734 4.50781 476.836 4.70312C476.055 3.88281 475 3.41406 473.828 3.41406C471.562 3.41406 469.727 5.25 469.727 7.51562C469.727 7.82812 469.766 8.14062 469.844 8.45312C466.445 8.25781 463.398 6.61719 461.367 4.15625C461.016 4.74219 460.82 5.44531 460.82 6.22656C460.82 7.63281 461.523 8.88281 462.656 9.625C461.992 9.58594 461.328 9.42969 460.781 9.11719V9.15625C460.781 11.1484 462.188 12.7891 464.062 13.1797C463.75 13.2578 463.359 13.3359 463.008 13.3359C462.734 13.3359 462.5 13.2969 462.227 13.2578C462.734 14.8984 464.258 16.0703 466.055 16.1094C464.648 17.2031 462.891 17.8672 460.977 17.8672C460.625 17.8672 460.312 17.8281 460 17.7891C461.797 18.9609 463.945 19.625 466.289 19.625C473.828 19.625 477.93 13.4141 477.93 7.98438C477.93 7.78906 477.93 7.63281 477.93 7.4375Z" fill="white"/>
<path d="M506.031 8L509.25 4.8125L509.906 4.15625C510 4.0625 510 3.90625 509.906 3.78125L509.219 3.09375C509.094 3 508.938 3 508.844 3.09375L505 6.96875L501.125 3.09375C501.031 3 500.875 3 500.75 3.09375L500.062 3.78125C499.969 3.90625 499.969 4.0625 500.062 4.15625L503.938 8L500.062 11.875C499.969 11.9688 499.969 12.125 500.062 12.25L500.75 12.9375C500.875 13.0312 501.031 13.0312 501.125 12.9375L505 9.0625L508.188 12.2812L508.844 12.9375C508.938 13.0312 509.094 13.0312 509.219 12.9375L509.906 12.25C510 12.125 510 11.9688 509.906 11.875L506.031 8Z" fill="white"/>
<path d="M537.5 3.10938C533.486 3.10938 530.234 6.39062 530.234 10.375C530.234 14.3887 533.486 17.6406 537.5 17.6406C541.484 17.6406 544.766 14.3887 544.766 10.375C544.766 6.39062 541.484 3.10938 537.5 3.10938ZM537.5 4.51562C540.723 4.51562 543.359 7.15234 543.359 10.375C543.359 13.627 540.723 16.2344 537.5 16.2344C534.248 16.2344 531.641 13.627 531.641 10.375C531.641 7.15234 534.248 4.51562 537.5 4.51562ZM541.602 8.35352L540.928 7.67969C540.811 7.5332 540.576 7.5332 540.43 7.67969L536.299 11.7812L534.541 10.0234C534.395 9.87695 534.189 9.87695 534.043 10.0234L533.369 10.668C533.252 10.8145 533.252 11.0488 533.369 11.166L536.035 13.8613C536.182 14.0078 536.387 14.0078 536.533 13.8613L541.602 8.85156C541.719 8.70508 541.719 8.4707 541.602 8.35352Z" fill="#F17228"/>
<path d="M565.562 1.41406L565.094 1.85938C565 1.97656 565 2.16406 565.094 2.25781L569.336 6.5L565.094 10.7656C565 10.8594 565 11.0469 565.094 11.1641L565.562 11.6094C565.68 11.7266 565.844 11.7266 565.961 11.6094L570.883 6.71094C570.977 6.59375 570.977 6.42969 570.883 6.3125L565.961 1.41406C565.844 1.29688 565.68 1.29688 565.562 1.41406Z" fill="#FDFDFD"/>
<path d="M598.789 10.5L602.812 6.51562L603.633 5.69531C603.75 5.57812 603.75 5.38281 603.633 5.22656L602.773 4.36719C602.617 4.25 602.422 4.25 602.305 4.36719L597.5 9.21094L592.656 4.36719C592.539 4.25 592.344 4.25 592.188 4.36719L591.328 5.22656C591.211 5.38281 591.211 5.57812 591.328 5.69531L596.172 10.5L591.328 15.3438C591.211 15.4609 591.211 15.6562 591.328 15.8125L592.188 16.6719C592.344 16.7891 592.539 16.7891 592.656 16.6719L597.5 11.8281L601.484 15.8516L602.305 16.6719C602.422 16.7891 602.617 16.7891 602.773 16.6719L603.633 15.8125C603.75 15.6562 603.75 15.4609 603.633 15.3438L598.789 10.5Z" fill="#B5B5B5"/>
<path d="M629.375 18.6875C629.656 19.125 630.312 19.125 630.594 18.6875C635.156 12.125 636 11.4375 636 9C636 5.6875 633.312 3 630 3C626.656 3 624 5.6875 624 9C624 11.4375 624.812 12.125 629.375 18.6875ZM630 11.5C628.594 11.5 627.5 10.4062 627.5 9C627.5 7.625 628.594 6.5 630 6.5C631.375 6.5 632.5 7.625 632.5 9C632.5 10.4062 631.375 11.5 630 11.5Z" fill="white"/>
</svg>
