<svg width="60" height="60" viewBox="0 0 60 60" fill="none" xmlns="http://www.w3.org/2000/svg">
<rect width="60" height="60" rx="10" fill="#FFD7BF" fill-opacity="0.28"/>
<path d="M44.0039 31.625H44.2969C44.707 30.8047 44.9414 29.8672 45 28.8125C45 26.8789 44.1211 25.1797 42.7734 23.9492C41.8945 20.8438 39.0234 18.5 35.625 18.5C35.3906 18.5 35.1562 18.5586 34.9805 18.6172C33.9258 16.332 31.6992 14.75 29.0625 14.75C26.4258 14.75 24.1406 16.332 23.0859 18.6172C22.9102 18.5586 22.6758 18.5 22.5 18.5C18.3398 18.5 15 21.8984 15 26C15 28.2852 15.9961 30.2773 17.5781 31.625H15.9375C15.4102 31.625 14.9414 32.0938 15 32.6211C15.3516 37.1328 18.3984 40.8242 22.5 42.2305V42.875C22.5 43.9297 23.3203 44.75 24.375 44.75H35.625C36.6797 44.75 37.5 43.9297 37.5 42.875V42.2305C41.543 40.7656 44.5898 37.0742 44.9414 32.6211C45 32.0938 44.5898 31.625 44.0039 31.625ZM43.125 28.8125C43.0664 29.9258 42.7148 30.8633 42.1289 31.625H34.6875C34.1016 30.8633 33.75 29.9258 33.75 28.8125C33.75 26.2344 35.8008 24.125 38.4375 24.125C41.0156 24.125 43.125 26.2344 43.125 28.8125ZM16.875 26C16.875 23.9492 18.2227 19.9062 24.375 20.375C25.957 16.6836 28.1836 16.625 29.0625 16.625C29.8828 16.625 32.1094 16.625 33.75 20.375C35.8008 20.2578 38.2031 20.3164 39.9609 22.4844C39.4336 22.3672 38.9062 22.3086 38.4375 22.25C34.8047 22.3086 31.875 25.2383 31.875 28.8125C31.875 29.8672 32.1094 30.8047 32.5195 31.625H30V20.8438C30 20.6094 29.7656 20.375 29.5312 20.375H28.5938C28.3008 20.375 28.125 20.6094 28.125 20.8438V30.3359L21.6211 23.832C21.5039 23.7148 21.3867 23.7148 21.2695 23.7148C21.1523 23.7148 21.0352 23.7148 20.918 23.832L20.2734 24.4766C20.1562 24.5938 20.0977 24.7109 20.0977 24.8281C20.0977 24.9453 20.1562 25.0625 20.2734 25.1211L26.7773 31.625H22.5C19.3945 31.625 16.875 29.1055 16.875 26ZM36.8555 40.4727L35.625 40.8828V42.875H24.375V40.8828L23.0859 40.4727C19.9805 39.3594 17.6367 36.7227 16.9922 33.5H42.9492C42.3047 36.7227 40.0195 39.3594 36.8555 40.4727Z" fill="#FF7800"/>
</svg>
