<svg width="61" height="60" viewBox="0 0 61 60" fill="none" xmlns="http://www.w3.org/2000/svg">
<rect x="0.5" width="60" height="60" rx="10" fill="#FFD7BF" fill-opacity="0.28"/>
<path d="M30.5 15.2188C22.4727 15.2188 15.9688 21.7227 15.9688 29.75C15.9688 37.7773 22.4727 44.2812 30.5 44.2812C38.5273 44.2812 45.0312 37.7773 45.0312 29.75C45.0312 21.7227 38.5273 15.2188 30.5 15.2188ZM43.1562 29.75C43.1562 36.7227 37.4727 42.4062 30.5 42.4062C23.5273 42.4062 17.8438 36.7812 17.8438 29.75C17.8438 22.8359 23.4688 17.0938 30.5 17.0938C37.4141 17.0938 43.1562 22.7773 43.1562 29.75ZM34.4258 34.9648C34.7188 35.1992 35.1875 35.082 35.3633 34.7891L35.8906 34.1445C36.125 33.793 36.0078 33.3828 35.7148 33.1484L31.6133 30.1602V21.5469C31.6133 21.1953 31.2617 20.8438 30.9102 20.8438H30.0898C29.6797 20.8438 29.3867 21.1953 29.3867 21.5469V30.9219C29.3867 31.1562 29.4453 31.332 29.6211 31.5078L34.4258 34.9648Z" fill="#FF7800"/>
</svg>
