<svg width="61" height="60" viewBox="0 0 61 60" fill="none" xmlns="http://www.w3.org/2000/svg">
<rect x="0.5" width="60" height="60" rx="10" fill="#FFD7BF" fill-opacity="0.28"/>
<path d="M40.5977 18.6875C39.4258 18.7363 33.5664 19.127 29.9043 21.0801C29.709 21.1777 29.3672 21.1777 29.1719 21.0801C25.5098 19.127 19.6504 18.7363 18.4785 18.6875C16.8184 18.6875 15.5 20.0059 15.5 21.6172V36.0703C15.5 37.6328 16.7207 38.8535 18.2832 38.9512C19.9922 39.0488 24.2402 39.3418 27.1699 40.416C27.4629 40.5137 27.707 40.5625 27.9512 40.5625H31.0762C31.3691 40.5625 31.6133 40.5137 31.9062 40.416C34.8359 39.3418 39.084 39.0488 40.793 38.9512C42.3555 38.8535 43.5762 37.6328 43.5762 36.0703V21.6172C43.625 20.0059 42.2578 18.6875 40.5977 18.6875ZM28.7812 38.2676C28.7812 38.707 28.3906 39.0488 28 39.0488C27.9023 39.0488 27.8535 39 27.7559 39C24.6797 37.8281 20.4805 37.4863 18.3809 37.3887C17.6484 37.3398 17.0625 36.8027 17.0625 36.0703V21.6172C17.0625 20.8848 17.6973 20.2988 18.4785 20.2988C19.4062 20.2988 24.4355 20.6406 27.8535 22.1543C28.3906 22.3984 28.7324 22.9355 28.7324 23.5215L28.7812 28.4043V38.2676ZM42.0625 36.0703C42.0625 36.8027 41.4277 37.3398 40.6953 37.3887C38.5957 37.4863 34.3965 37.8281 31.3203 39C31.2227 39 31.1738 39.0488 31.0762 39.0488C30.6855 39.0488 30.2949 38.707 30.2949 38.2676V28.4043L30.3438 23.5215C30.3438 22.9355 30.6855 22.3984 31.2227 22.1543C34.6406 20.6406 39.6699 20.2988 40.5977 20.2988C41.3789 20.2988 42.0137 20.8848 42.0137 21.6172V36.0703H42.0625Z" fill="#FF7800"/>
</svg>
